<svg width="130" height="94" viewBox="0 0 130 94" fill="none" xmlns="http://www.w3.org/2000/svg">
<path d="M100.455 85.1875C98.1038 85.1875 95.8493 84.259 94.187 82.6064C92.5248 80.9537 91.5909 78.7122 91.5909 76.375C91.5909 74.0378 92.5248 71.7963 94.187 70.1436C95.8493 68.491 98.1038 67.5625 100.455 67.5625C102.805 67.5625 105.06 68.491 106.722 70.1436C108.384 71.7963 109.318 74.0378 109.318 76.375C109.318 78.7122 108.384 80.9537 106.722 82.6064C105.06 84.259 102.805 85.1875 100.455 85.1875ZM109.318 32.3125L120.9 47H94.5455V32.3125M29.5455 85.1875C27.1947 85.1875 24.9402 84.259 23.2779 82.6064C21.6157 80.9537 20.6818 78.7122 20.6818 76.375C20.6818 74.0378 21.6157 71.7963 23.2779 70.1436C24.9402 68.491 27.1947 67.5625 29.5455 67.5625C31.8962 67.5625 34.1507 68.491 35.813 70.1436C37.4752 71.7963 38.4091 74.0378 38.4091 76.375C38.4091 78.7122 37.4752 80.9537 35.813 82.6064C34.1507 84.259 31.8962 85.1875 29.5455 85.1875ZM112.273 23.5H94.5455V0H11.8182C5.25909 0 0 5.22875 0 11.75V76.375H11.8182C11.8182 81.0494 13.6859 85.5324 17.0104 88.8378C20.3349 92.1431 24.8439 94 29.5455 94C34.247 94 38.756 92.1431 42.0805 88.8378C45.405 85.5324 47.2727 81.0494 47.2727 76.375H82.7273C82.7273 81.0494 84.595 85.5324 87.9195 88.8378C91.244 92.1431 95.753 94 100.455 94C105.156 94 109.665 92.1431 112.99 88.8378C116.314 85.5324 118.182 81.0494 118.182 76.375H130V47L112.273 23.5Z" fill="white"/>
</svg>
