<svg width="16" height="15" viewBox="0 0 16 15" fill="none" xmlns="http://www.w3.org/2000/svg">
<path d="M11.5025 14.88C11.1468 15.0352 10.7457 15.0386 10.3876 14.8895C10.0294 14.7404 9.7435 14.451 9.59271 14.085C9.44192 13.719 9.43861 13.3064 9.58351 12.9379C9.72841 12.5693 10.0097 12.2752 10.3654 12.12C10.5415 12.0432 10.7306 12.0028 10.9219 12.0012C11.1132 11.9996 11.303 12.0367 11.4803 12.1105C11.6576 12.1844 11.8191 12.2934 11.9555 12.4314C12.0919 12.5695 12.2005 12.7338 12.2752 12.915C12.3498 13.0962 12.3891 13.2908 12.3907 13.4876C12.3922 13.6845 12.3561 13.8797 12.2844 14.0621C12.2126 14.2446 12.1066 14.4108 11.9725 14.5511C11.8383 14.6914 11.6786 14.8032 11.5025 14.88ZM4.82551 3C5.63462 3 6.28337 2.3325 6.28337 1.5C6.28337 1.10218 6.12978 0.720644 5.85637 0.43934C5.58297 0.158035 5.21216 0 4.82551 0C4.00911 0 3.36765 0.675 3.36765 1.5C3.36765 2.3325 4.00911 3 4.82551 3ZM15.344 10.755L12.5376 12C12.6979 12.165 12.8437 12.375 12.9458 12.615C13.0478 12.8625 13.0916 13.125 13.1207 13.365L15.9125 12.135L15.344 10.755ZM6.67699 5.085L7.2164 6.4425C7.04146 6.375 6.88109 6.285 6.74989 6.195C6.31253 5.9025 5.9918 5.535 5.78041 5.1L5.241 3.9225C5.10251 3.66 4.93485 3.465 4.70159 3.33C4.4902 3.2025 4.26424 3.135 4.03098 3.135C3.79772 3.135 3.57904 3.195 3.36765 3.3C2.34715 4.125 2.09203 5.655 2.09203 5.655L1.84419 6.8325C1.77859 7.2225 1.74214 7.6125 1.74214 8.01V11.73L0 14.1525L1.09339 15L3.11253 12.1875L3.23645 9.75L4.46105 11.505V15H5.80957V10.455L4.46105 8.4975V8.01C4.46105 7.68 4.46105 7.3575 4.54123 7.0425L4.79635 6.1425C5.07335 6.555 5.40866 6.915 5.80957 7.2225C6.13759 7.4775 7.05604 7.9275 7.92346 8.145L9.47608 11.85C9.63645 11.685 9.84055 11.535 10.0811 11.43C10.3144 11.325 10.5695 11.28 10.8027 11.25L8.01822 4.5L6.67699 5.085ZM10.4674 7.59L11.8961 11.04L16 9.2325L14.5786 5.79" fill="white"/>
</svg>
