<svg width="407" height="156" viewBox="0 0 407 156" fill="none" xmlns="http://www.w3.org/2000/svg">
<mask id="mask0_6_4" style="mask-type:alpha" maskUnits="userSpaceOnUse" x="0" y="0" width="407" height="156">
<rect width="407" height="156" rx="10" fill="#D9D9D9"/>
</mask>
<g mask="url(#mask0_6_4)">
<path d="M768 -190H-361C-366.523 -190 -371 -185.523 -371 -180V362C-371 367.523 -366.523 372 -361 372H768C773.523 372 778 367.523 778 362V-180C778 -185.523 773.523 -190 768 -190Z" fill="url(#paint0_linear_6_4)"/>
<path d="M147.629 97.6338V103H121.276V97.6338H147.629ZM122.609 53.2344V103H116.013V53.2344H122.609ZM144.143 74.6309V79.9971H121.276V74.6309H144.143ZM147.287 53.2344V58.6348H121.276V53.2344H147.287ZM161.164 73.9131V103H154.841V66.0176H160.822L161.164 73.9131ZM159.66 83.1074L157.028 83.0049C157.051 80.4756 157.427 78.14 158.156 75.998C158.885 73.8333 159.911 71.9535 161.232 70.3584C162.554 68.7633 164.126 67.5329 165.949 66.667C167.795 65.7783 169.834 65.334 172.067 65.334C173.89 65.334 175.531 65.5846 176.989 66.0859C178.448 66.5645 179.689 67.3392 180.715 68.4102C181.763 69.4811 182.561 70.8711 183.107 72.5801C183.654 74.2663 183.928 76.3285 183.928 78.7666V103H177.57V78.6982C177.57 76.7614 177.285 75.2119 176.716 74.0498C176.146 72.8649 175.314 72.0104 174.221 71.4863C173.127 70.9395 171.783 70.666 170.188 70.666C168.615 70.666 167.18 70.9964 165.881 71.6572C164.605 72.318 163.5 73.2295 162.565 74.3916C161.654 75.5537 160.936 76.8867 160.412 78.3906C159.911 79.8717 159.66 81.444 159.66 83.1074ZM209.016 66.0176V70.8711H189.021V66.0176H209.016ZM195.788 57.0283H202.111V93.8398C202.111 95.0931 202.305 96.0387 202.692 96.6768C203.08 97.3148 203.581 97.7363 204.196 97.9414C204.812 98.1465 205.472 98.249 206.179 98.249C206.703 98.249 207.25 98.2035 207.819 98.1123C208.412 97.9984 208.856 97.9072 209.152 97.8389L209.187 103C208.685 103.16 208.024 103.308 207.204 103.444C206.407 103.604 205.438 103.684 204.299 103.684C202.749 103.684 201.325 103.376 200.026 102.761C198.728 102.146 197.691 101.12 196.916 99.6846C196.164 98.2262 195.788 96.2666 195.788 93.8057V57.0283ZM222.756 71.8281V103H216.433V66.0176H222.585L222.756 71.8281ZM234.309 65.8125L234.274 71.6914C233.75 71.5775 233.249 71.5091 232.771 71.4863C232.315 71.4408 231.791 71.418 231.198 71.418C229.74 71.418 228.452 71.6458 227.336 72.1016C226.219 72.5573 225.274 73.1953 224.499 74.0156C223.724 74.8359 223.109 75.8158 222.653 76.9551C222.22 78.0716 221.936 79.3021 221.799 80.6465L220.021 81.6719C220.021 79.4388 220.238 77.3424 220.671 75.3828C221.127 73.4232 221.822 71.6914 222.756 70.1875C223.69 68.6608 224.875 67.4759 226.311 66.6328C227.769 65.7669 229.501 65.334 231.506 65.334C231.962 65.334 232.486 65.391 233.078 65.5049C233.671 65.596 234.081 65.6986 234.309 65.8125ZM260.593 96.6768V77.6387C260.593 76.1803 260.297 74.9157 259.704 73.8447C259.134 72.751 258.269 71.9079 257.106 71.3154C255.944 70.723 254.509 70.4268 252.8 70.4268C251.205 70.4268 249.803 70.7002 248.596 71.2471C247.411 71.7939 246.477 72.5117 245.793 73.4004C245.132 74.2891 244.802 75.2461 244.802 76.2715H238.479C238.479 74.9499 238.82 73.6396 239.504 72.3408C240.188 71.042 241.167 69.8685 242.443 68.8203C243.742 67.7493 245.292 66.9062 247.092 66.291C248.915 65.653 250.943 65.334 253.176 65.334C255.865 65.334 258.234 65.7897 260.285 66.7012C262.359 67.6126 263.977 68.9912 265.139 70.8369C266.324 72.6598 266.916 74.9499 266.916 77.707V94.9336C266.916 96.1641 267.019 97.4743 267.224 98.8643C267.451 100.254 267.782 101.451 268.215 102.453V103H261.618C261.299 102.271 261.049 101.302 260.866 100.095C260.684 98.8643 260.593 97.7249 260.593 96.6768ZM261.687 80.5781L261.755 85.0215H255.363C253.563 85.0215 251.957 85.1696 250.544 85.4658C249.131 85.7393 247.946 86.1608 246.989 86.7305C246.032 87.3001 245.303 88.0179 244.802 88.8838C244.3 89.7269 244.05 90.7181 244.05 91.8574C244.05 93.0195 244.312 94.0791 244.836 95.0361C245.36 95.9932 246.146 96.7565 247.194 97.3262C248.265 97.873 249.576 98.1465 251.125 98.1465C253.062 98.1465 254.771 97.7363 256.252 96.916C257.733 96.0957 258.907 95.0931 259.772 93.9082C260.661 92.7233 261.14 91.5726 261.208 90.4561L263.908 93.498C263.749 94.4551 263.316 95.5146 262.609 96.6768C261.903 97.8389 260.957 98.9554 259.772 100.026C258.61 101.075 257.22 101.952 255.603 102.658C254.007 103.342 252.207 103.684 250.202 103.684C247.696 103.684 245.497 103.194 243.605 102.214C241.737 101.234 240.279 99.9238 239.23 98.2832C238.205 96.6198 237.692 94.7627 237.692 92.7119C237.692 90.7295 238.08 88.9863 238.854 87.4824C239.629 85.9557 240.746 84.6911 242.204 83.6885C243.662 82.6631 245.417 81.8883 247.468 81.3643C249.519 80.8402 251.809 80.5781 254.338 80.5781H261.687ZM283.186 71.8281V103H276.862V66.0176H283.015L283.186 71.8281ZM294.738 65.8125L294.704 71.6914C294.18 71.5775 293.679 71.5091 293.2 71.4863C292.744 71.4408 292.22 71.418 291.628 71.418C290.17 71.418 288.882 71.6458 287.766 72.1016C286.649 72.5573 285.703 73.1953 284.929 74.0156C284.154 74.8359 283.539 75.8158 283.083 76.9551C282.65 78.0716 282.365 79.3021 282.229 80.6465L280.451 81.6719C280.451 79.4388 280.668 77.3424 281.101 75.3828C281.556 73.4232 282.251 71.6914 283.186 70.1875C284.12 68.6608 285.305 67.4759 286.74 66.6328C288.199 65.7669 289.93 65.334 291.936 65.334C292.391 65.334 292.915 65.391 293.508 65.5049C294.1 65.596 294.51 65.6986 294.738 65.8125Z" fill="white"/>
</g>
<defs>
<linearGradient id="paint0_linear_6_4" x1="-371" y1="-190" x2="414.714" y2="694.655" gradientUnits="userSpaceOnUse">
<stop stop-color="#563A8E"/>
<stop offset="1" stop-color="#E43B4E"/>
</linearGradient>
</defs>
</svg>
